<svg id="Capa_1" enable-background="new 0 0 511.907 511.907" height="512" viewBox="0 0 511.907 511.907" width="512" xmlns="http://www.w3.org/2000/svg"><g><path d="m368.156 25.567c-44.181-1.361-84.101 16.623-112.202 46.009-28.101-29.386-68.021-47.37-112.202-46.009-14.045.433-27.463 2.837-40.062 6.925-35.209 11.424-61.736 42.268-79.986 73.711l47.298-6.27c18.901-20.219 45.592-32.964 77.011-33.083 29.572-.112 57.202 11.653 77.816 33.083l32.625 9.52 27.625-9.52c20.688-21.508 48.444-33.28 78.136-33.081 30.095.201 56.235 13.048 75.106 33.081l30.549 8.353 20.624-8.353c-24.78-42.694-69.046-72.724-122.338-74.366z" fill="#e5646e"/><path d="m103.69 32.492c-35.192 11.43-64.033 36.009-82.276 67.441l5.04 5.77 8.389-5.77c14.827-29.41 39.089-53.213 68.847-67.441z" fill="#db4655"/><g fill="#ffa95f"><path d="m34.843 99.934c-16.723 14.353-25.994 55.255-26.889 82.02l33.37-7.581c.772-28.864 11.588-55.088 29.678-74.439z"/><path d="m490.494 99.934h-51.173c18.437 19.572 29.844 46.017 31.079 74.439l18.554 9.915 22.86-9.915c-.896-26.766-8.472-52.304-21.32-74.439z"/><path d="m276.631 174.372v-57.946c0-4.259 1.643-8.354 4.587-11.433l4.624-4.836c.076-.079.161-.145.237-.224h-60.25c.076.079.161.145.237.224l4.624 4.836c2.944 3.078 4.587 7.173 4.587 11.433v57.946l20.677 10.748z"/></g><path d="m18.853 166.79c0-24.073 5.845-46.735 15.99-66.857h-13.43c-12.847 22.136-20.424 47.674-21.319 74.439l10.859 6.331 8.229-6.331c-.099-2.529-.329-5.032-.329-7.582z" fill="#ff8b5a"/><path d="m510.268 202.879c1.399-9.593 1.859-19.121 1.545-28.507h-41.413c.321 7.375.047 14.864-1.063 22.412-2.639 17.952-8.322 35.362-16.066 52.027l7.682 18.143 37.194-18.143c5.597-14.85 9.82-30.16 12.121-45.932z" fill="#ffd064"/><path d="m42.242 194.319c-.896-6.76-1.093-13.401-.918-19.946h-22.142c-11.229 5.831-8.878 18.914-7.479 28.507 2.301 15.772 1.974 43.967 23 52.574l24.059-6.643c-8.244-17.662-14.055-35.893-16.52-54.492z" fill="#ffd064"/><path d="m281.476 223.187c-3.103-3.102-4.845-7.31-4.845-11.697v-37.118h-41.355v37.118c0 4.387-1.743 8.595-4.845 11.697l-25.624 25.624 51.146 16.476 51.146-16.476z" fill="#fad064"/><path d="m19.182 174.372h-19.088c-.314 9.387.146 18.914 1.545 28.507 2.301 15.772 6.524 31.082 12.12 45.931l15.527 8.476 6.693-8.476c-9.779-23.591-15.779-48.505-16.797-74.438z" fill="#ffc250"/><path d="m276.631 323.249v-26.455c0-7.368 8.909-11.059 14.119-5.848l32.303 32.303 29.233 14.371 29.252-14.371-74.438-74.438h-102.293l-74.438 74.439 23.917 14.371 34.568-14.371 32.303-32.303c5.21-5.21 14.119-1.532 14.119 5.837v26.466l17.011 14.371z" fill="#b3e59f"/><path d="m109.205 323.249c-20.393-23.064-38.151-48.106-50.443-74.439h-22.782s-5.026 32.476 35.307 83.81z" fill="#b3e59f"/><path d="m498.148 248.811-44.876-.001c-12.605 27.129-30.725 52.251-50.384 74.439l8.733 17.038 44.714-17.038c17.225-23.031 31.83-47.95 41.813-74.438z" fill="#b3e59f"/><path d="m35.98 248.811h-22.22c9.982 26.487 24.587 51.407 41.813 74.438l20.381 10.371 4.727-10.371c-18.041-22.948-33.682-47.857-44.701-74.438z" fill="#95d6a4"/><path d="m276.631 323.249h-41.355c0 24.169 0 52.992.001 74.439l22.344 8.599 19.011-8.599v-74.439z" fill="#a4ccff"/><path d="m398.542 328.112c-3.168 3.469-8.618 3.523-11.939.201l-5.064-5.064h-58.485l33.738 33.738c3.435 3.435 3.273 8.916-.394 12.101-11.974 10.4-23.958 19.945-35.486 28.6l17.376 13.266 48.189-13.266c24.63-21.666 49.095-46.678 69.858-74.439h-53.447c-1.445 1.63-2.887 3.265-4.346 4.863z" fill="#a4ccff"/><path d="m155.504 369.049c-3.588-3.143-3.739-8.71-.365-12.083l33.716-33.716h-58.485l-4.969 4.969c-3.328 3.328-8.807 3.255-11.975-.226-1.426-1.566-2.818-3.159-4.22-4.744h-28.526s40.393 63.789 65.023 85.454l45.006-11.016c-11.643-8.827-23.499-18.383-35.205-28.638z" fill="#a4ccff"/><path d="m80.68 323.249h-25.107c20.763 27.76 45.228 52.773 69.858 74.439l20.522 6.599 7.588-6.599c-25.281-21.434-50.849-46.44-72.861-74.439z" fill="#8bb3ea"/><path d="m320.911 397.688c-11.061 8.304-21.704 15.79-31.461 22.331-5.487 3.679-12.819-.317-12.819-6.924v-15.407h-41.354v15.79c0 6.625-7.362 10.584-12.86 6.888-10.161-6.832-20.843-14.441-31.708-22.678h-37.167c17.745 27.599 79.66 72.762 99.078 83.599l19.723-1.747c23.524-13.668 69.017-42.165 114.133-81.852z" fill="#c3aff0"/><path d="m153.542 397.688h-28.111c51.303 45.129 103.101 75.797 122.519 86.634 4.994 2.787 11.013 2.787 16.007 0 2.337-1.304 5.168-2.912 8.387-4.782-12.68-6.846-64.976-36.22-118.802-81.852z" fill="#aa96e6"/></g></svg>